<svg xmlns="http://www.w3.org/2000/svg" viewBox="0 0 980 915" role="img" aria-label="Diagnose wrong or missing standards"><defs><marker id="arrow" viewBox="0 0 10 10" refX="9" refY="5" markerWidth="7" markerHeight="7" orient="auto-start-reverse"><path d="M 0 0 L 10 5 L 0 10 z" fill="#65778a"/></marker></defs><path d="M480,105 V130.0 H480 V155" fill="none" stroke="#65778a" stroke-width="2" marker-end="url(#arrow)"/><path d="M480,215 V240.0 H170 V265" fill="none" stroke="#65778a" stroke-width="2" marker-end="url(#arrow)"/><text x="333.0" y="235.0" font-family="Arial" font-size="14" fill="#34485c">No</text><path d="M480,215 V240.0 H790 V265" fill="none" stroke="#65778a" stroke-width="2" marker-end="url(#arrow)"/><text x="643.0" y="235.0" font-family="Arial" font-size="14" fill="#34485c">Yes</text><path d="M790,325 V350.0 H790 V375" fill="none" stroke="#65778a" stroke-width="2" marker-end="url(#arrow)"/><path d="M790,435 V460.0 H170 V485" fill="none" stroke="#65778a" stroke-width="2" marker-end="url(#arrow)"/><text x="488.0" y="455.0" font-family="Arial" font-size="14" fill="#34485c">No</text><path d="M790,435 V460.0 H790 V485" fill="none" stroke="#65778a" stroke-width="2" marker-end="url(#arrow)"/><text x="798.0" y="455.0" font-family="Arial" font-size="14" fill="#34485c">Yes</text><path d="M790,545 V570.0 H790 V595" fill="none" stroke="#65778a" stroke-width="2" marker-end="url(#arrow)"/><path d="M790,655 V680.0 H170 V705" fill="none" stroke="#65778a" stroke-width="2" marker-end="url(#arrow)"/><text x="488.0" y="675.0" font-family="Arial" font-size="14" fill="#34485c">Yes</text><path d="M790,655 V680.0 H790 V705" fill="none" stroke="#65778a" stroke-width="2" marker-end="url(#arrow)"/><text x="798.0" y="675.0" font-family="Arial" font-size="14" fill="#34485c">No</text><path d="M35,295 H15 V845 H345" fill="none" stroke="#65778a" stroke-width="2" marker-end="url(#arrow)"/><path d="M35,515 H15 V845 H345" fill="none" stroke="#65778a" stroke-width="2" marker-end="url(#arrow)"/><path d="M170,765 V790.0 H480 V815" fill="none" stroke="#65778a" stroke-width="2" marker-end="url(#arrow)"/><path d="M790,765 V790.0 H480 V815" fill="none" stroke="#65778a" stroke-width="2" marker-end="url(#arrow)"/><rect x="345" y="45" width="270" height="60" rx="6" fill="#f5f7fa" stroke="#486784" stroke-width="1.5"/><text x="480" y="71" text-anchor="middle" font-family="Arial" font-size="15" fill="#132c45">Capture document context and</text><text x="480" y="89" text-anchor="middle" font-family="Arial" font-size="15" fill="#132c45">builds</text><rect x="345" y="155" width="270" height="60" rx="18" fill="#e4eef9" stroke="#486784" stroke-width="1.5"/><text x="480" y="190" text-anchor="middle" font-family="Arial" font-size="15" fill="#132c45">Common CFG trace present</text><rect x="35" y="265" width="270" height="60" rx="6" fill="#f5f7fa" stroke="#486784" stroke-width="1.5"/><text x="170" y="300" text-anchor="middle" font-family="Arial" font-size="15" fill="#132c45">Check CSB and launch integration</text><rect x="655" y="265" width="270" height="60" rx="6" fill="#f5f7fa" stroke="#486784" stroke-width="1.5"/><text x="790" y="291" text-anchor="middle" font-family="Arial" font-size="15" fill="#132c45">Check WorkArea selector and</text><text x="790" y="309" text-anchor="middle" font-family="Arial" font-size="15" fill="#132c45">adapter</text><rect x="655" y="375" width="270" height="60" rx="18" fill="#e4eef9" stroke="#486784" stroke-width="1.5"/><text x="790" y="401" text-anchor="middle" font-family="Arial" font-size="15" fill="#132c45">Final workspace and WorkSet</text><text x="790" y="419" text-anchor="middle" font-family="Arial" font-size="15" fill="#132c45">match</text><rect x="35" y="485" width="270" height="60" rx="6" fill="#f5f7fa" stroke="#486784" stroke-width="1.5"/><text x="170" y="520" text-anchor="middle" font-family="Arial" font-size="15" fill="#132c45">Correct first wrong selection</text><rect x="655" y="485" width="270" height="60" rx="6" fill="#f5f7fa" stroke="#486784" stroke-width="1.5"/><text x="790" y="511" text-anchor="middle" font-family="Arial" font-size="15" fill="#132c45">Check resource paths and</text><text x="790" y="529" text-anchor="middle" font-family="Arial" font-size="15" fill="#132c45">availability</text><rect x="655" y="595" width="270" height="60" rx="18" fill="#e4eef9" stroke="#486784" stroke-width="1.5"/><text x="790" y="630" text-anchor="middle" font-family="Arial" font-size="15" fill="#132c45">Drive or server difference</text><rect x="35" y="705" width="270" height="60" rx="6" fill="#f5f7fa" stroke="#486784" stroke-width="1.5"/><text x="170" y="731" text-anchor="middle" font-family="Arial" font-size="15" fill="#132c45">Check user sync or process</text><text x="170" y="749" text-anchor="middle" font-family="Arial" font-size="15" fill="#132c45">context</text><rect x="655" y="705" width="270" height="60" rx="6" fill="#f5f7fa" stroke="#486784" stroke-width="1.5"/><text x="790" y="731" text-anchor="middle" font-family="Arial" font-size="15" fill="#132c45">Check native resource</text><text x="790" y="749" text-anchor="middle" font-family="Arial" font-size="15" fill="#132c45">configuration</text><rect x="345" y="815" width="270" height="60" rx="6" fill="#f5f7fa" stroke="#486784" stroke-width="1.5"/><text x="480" y="841" text-anchor="middle" font-family="Arial" font-size="15" fill="#132c45">Retest output and record</text><text x="480" y="859" text-anchor="middle" font-family="Arial" font-size="15" fill="#132c45">evidence</text></svg>